<svg id="Layer_1" data-name="Layer 1" xmlns="http://www.w3.org/2000/svg" viewBox="0 0 263 40"><defs><style>.cls-1{fill:#e87511;}</style></defs><path class="cls-1" d="M29.9,15.25a11.9,11.9,0,1,1-11.8,11.9V.75h6.1v26.4a6,6,0,1,0,6-6H27.1v-5.8l2.8-.1Z"/><path class="cls-1" d="M6.6,21.45a.54.54,0,0,1,.5-.5h8.1v-5.8H5.1a4.72,4.72,0,0,0-4.5,4.7v18.9h6Z"/><path d="M72.8,38.65H67.1l-3.2-9.3H61.2v9.3H56V15.25h8.3c5,0,7.8,3.2,7.8,7.1a6.6,6.6,0,0,1-3.3,6l4,10.3ZM61.3,20v5.2h3a2.59,2.59,0,0,0,2.9-2.5c0-1.5-1-2.6-2.9-2.6C64.2,20,61.3,20,61.3,20Z"/><path d="M75.2,38.65V15.25h5.2v23.4Z"/><path d="M86.8,38.65V20H82.4v-4.7h14V20H92v18.7Z"/><path d="M96.1,27a12.27,12.27,0,0,1,12.4-12.1,11.82,11.82,0,0,1,10.8,6.6l-4.7,2.4a6.64,6.64,0,0,0-6.1-4,6.82,6.82,0,0,0-6.8,7.1,6.9,6.9,0,0,0,6.8,7.2,6.75,6.75,0,0,0,6.1-4l4.7,2.4a11.78,11.78,0,0,1-10.9,6.7A12.42,12.42,0,0,1,96.1,27Z"/><path d="M121.5,38.65V15.25h5.2v8.9h6.9v-8.9h5.2v23.4h-5.2v-9.9h-6.9v9.9Z"/><path d="M142.7,38.65V15.25h5.2v23.4Z"/><path d="M151.7,38.65V15.25h13.1V20h-7.9v4.5h7.3v4.7h-7.3v4.9h7.9v4.6Z"/><path d="M191.2,31.65c0,3.8-2.7,7-8,7h-8.7V15.25h7.9c5.1,0,7.8,3,7.8,6.5a6,6,0,0,1-2.1,4.5,6.56,6.56,0,0,1,3.1,5.4Zm-11.6-11.9v5h2.9a2.53,2.53,0,0,0,2.7-2.5,2.47,2.47,0,0,0-2.7-2.5Zm3.5,14.5a2.79,2.79,0,0,0,3-2.8,2.74,2.74,0,0,0-2.9-2.7h-3.6v5.5Z"/><path d="M210.4,38.65h-5.7l-3.1-9.3h-2.7v9.3h-5.2V15.25H202c5,0,7.8,3.2,7.8,7.1a6.5,6.5,0,0,1-3.4,6l4,10.3ZM198.8,20v5.2h2.9a2.59,2.59,0,0,0,2.9-2.5c0-1.5-1-2.6-2.9-2.6h-2.9Z"/><path d="M211.1,27a12.51,12.51,0,0,1,25,0,12.51,12.51,0,0,1-25,0Zm19.3,0a6.81,6.81,0,1,0-13.6,0,6.81,6.81,0,1,0,13.6,0Z"/><path d="M237.5,31.35h5.3c.2,2.2,1.4,3.3,3.1,3.3a2.32,2.32,0,0,0,2.6-2.4c0-1.7-1.1-2.4-4.5-3.3s-6.3-3-6.3-7,3.1-7.1,7.8-7.1,7.6,2.8,7.9,7.5h-5.2c-.1-2-1.3-3-2.7-3a2.4,2.4,0,0,0-2.6,2.3c0,1.6,1.1,2.1,4.3,3.1,3.6,1,6.5,3.5,6.5,7.2,0,4.7-3.2,7.3-7.9,7.3s-8-3-8.3-7.9Z"/><path d="M255.3,35.85a3.3,3.3,0,1,1,3.3,3.3,3.27,3.27,0,0,1-3.3-3.3Z"/><path d="M255.12,17.53a2.68,2.68,0,0,1,2.67-2.66,2.71,2.71,0,0,1,2.68,2.66,2.68,2.68,0,0,1-5.35,0Zm4.84,0a2.17,2.17,0,1,0-2.17,2.17A2.19,2.19,0,0,0,260,17.53Zm-3.12,1.34v-2.8H258a.91.91,0,0,1,1,.9.89.89,0,0,1-.62.85l.66,1.05h-.65l-.57-1h-.4v1Zm.57-1.47h.53a.43.43,0,0,0,.47-.42.42.42,0,0,0-.46-.43h-.54Z"/></svg>